<?xml version="1.0" standalone="no"?>
<!DOCTYPE svg PUBLIC "-//W3C//DTD SVG 20010904//EN"
 "http://www.w3.org/TR/2001/REC-SVG-20010904/DTD/svg10.dtd">
<svg version="1.0" xmlns="http://www.w3.org/2000/svg"
 width="1187.000000pt" height="1280.000000pt" viewBox="0 0 1187.000000 1280.000000"
 preserveAspectRatio="xMidYMid meet">
<g transform="translate(0.000000,1280.000000) scale(0.100000,-0.100000)"
fill="white" stroke="none">
<path d="M5 12787 c-3 -6 -4 -194 -3 -417 l3 -405 221 -3 221 -2 104 -113
c128 -137 1535 -1642 2119 -2267 234 -250 621 -664 860 -920 238 -256 469
-502 512 -548 43 -45 83 -94 88 -108 6 -14 18 -28 29 -31 15 -4 124 -117 563
-588 l57 -62 -9 -719 c-11 -829 -24 -1906 -45 -3579 -8 -649 -15 -1181 -15
-1182 0 0 -33 -7 -72 -13 -271 -46 -507 -203 -618 -411 l-30 -57 -107 30
c-172 46 -203 52 -212 42 -5 -5 -17 -63 -27 -129 -9 -66 -18 -121 -19 -123 -2
-2 -20 8 -40 23 -42 28 -57 30 -87 14 -26 -14 -58 -85 -58 -132 0 -36 -1 -37
-32 -35 -24 2 -33 -2 -36 -15 -5 -24 57 -155 82 -173 50 -35 110 -6 149 72 23
46 54 176 72 310 9 65 19 126 23 135 6 15 22 12 140 -19 132 -35 134 -36 128
-61 -4 -14 -12 -68 -18 -119 -14 -103 -9 -100 -103 -77 -34 8 -63 11 -69 5 -4
-4 -15 -65 -24 -133 l-15 -125 -27 20 c-35 25 -78 20 -102 -12 -10 -14 -24
-56 -31 -93 -10 -54 -15 -65 -25 -55 -10 10 -15 9 -27 -3 -14 -13 -14 -20 -1
-56 51 -144 111 -179 170 -100 41 56 69 174 96 412 7 55 14 102 16 104 2 2 34
-2 71 -10 l67 -14 17 -58 17 -58 -31 -13 c-18 -7 -53 -21 -79 -31 -29 -10 -48
-24 -48 -33 0 -8 25 -62 55 -118 30 -57 55 -106 55 -109 0 -3 -18 -5 -39 -5
-23 0 -48 -8 -62 -19 -33 -26 -30 -94 5 -157 14 -26 26 -48 26 -50 0 -2 -12
-4 -26 -4 -21 0 -25 -4 -22 -23 4 -28 128 -96 176 -97 63 0 92 57 73 144 -13
59 -87 223 -154 344 -45 82 -46 83 -24 91 12 5 39 16 61 25 21 9 40 16 41 16
2 0 20 -29 40 -65 20 -36 60 -91 90 -123 l54 -58 -65 -38 c-35 -21 -64 -40
-64 -43 0 -3 36 -54 79 -113 l79 -108 -40 -5 c-22 -3 -48 -13 -59 -23 -35 -31
-19 -107 35 -171 l27 -32 -23 -3 c-15 -2 -23 -10 -23 -23 0 -23 60 -56 137
-77 44 -11 50 -10 75 8 79 59 44 158 -151 423 -38 52 -69 101 -70 108 -1 8 20
25 46 40 42 23 49 24 76 12 21 -9 37 -28 52 -60 30 -67 90 -132 177 -188 311
-205 822 -195 1057 20 105 96 139 228 88 342 l-21 48 24 38 c34 55 71 147 84
212 l12 56 123 -45 124 -46 -63 -130 c-99 -205 -117 -253 -123 -327 -4 -62 -3
-69 21 -93 15 -15 37 -26 53 -26 33 0 162 67 175 92 13 24 4 38 -25 38 l-23 0
25 50 c30 61 33 121 7 150 -13 15 -30 20 -67 20 l-48 0 60 119 c46 93 56 121
47 130 -7 6 -74 32 -148 59 -84 31 -135 55 -137 65 -2 8 44 74 102 145 58 72
106 138 106 148 0 15 -9 16 -93 8 -158 -14 -192 -12 -195 11 -2 12 16 81 38
154 30 97 38 137 30 145 -8 8 -41 -5 -119 -47 -60 -31 -112 -57 -117 -57 -5 1
-26 15 -46 33 l-38 32 30 95 c31 100 37 140 19 140 -5 0 -67 -30 -136 -67
l-126 -66 -71 16 c-97 23 -252 40 -300 34 l-38 -5 6 346 c4 191 11 723 16
1182 6 459 17 1389 25 2065 8 677 15 1353 17 1503 1 150 5 271 8 270 4 -2 143
-151 310 -333 423 -458 1024 -1110 2070 -2245 262 -283 1004 -1089 1651 -1790
647 -701 1381 -1498 1632 -1770 l457 -495 0 -193 0 -192 463 2 462 3 0 6300 0
6300 -5928 3 c-4740 2 -5929 0 -5932 -11z m2127 -975 c48 -81 143 -241 211
-357 l125 -209 -23 -31 c-12 -16 -129 -190 -260 -385 -130 -195 -242 -361
-249 -368 -9 -10 -66 45 -266 260 -140 150 -451 482 -690 738 -239 256 -441
474 -449 483 -13 16 31 17 750 17 l764 0 87 -148z m1737 -13 c18 -89 35 -167
37 -173 5 -13 -9 -16 -921 -216 -253 -56 -467 -103 -476 -106 -13 -3 -62 72
-212 326 l-195 330 867 0 868 0 32 -161z m1335 149 c-4 -6 -13 -74 -20 -150
-6 -77 -14 -141 -16 -143 -1 -2 -165 -8 -363 -15 -198 -6 -468 -15 -600 -20
-132 -4 -242 -7 -243 -5 -4 4 -72 322 -72 336 0 5 271 9 661 9 495 0 658 -3
653 -12z m1986 8 c0 -3 -79 -160 -176 -350 -103 -201 -181 -343 -187 -341 -10
4 -286 69 -992 235 -88 21 -262 62 -388 91 l-227 54 7 80 c5 44 8 115 8 158
l0 77 978 0 c537 0 977 -2 977 -4z m1714 -240 c120 -134 217 -248 216 -253 -1
-4 -216 -214 -477 -467 -431 -416 -476 -457 -491 -443 -9 8 -296 166 -637 352
-341 186 -621 339 -623 341 -4 2 114 239 255 512 l105 202 717 0 718 0 217
-244z m2036 -553 l0 -798 -34 35 c-18 19 -330 368 -691 775 -362 407 -667 750
-678 763 l-20 22 711 0 712 0 0 -797z m-5775 400 c-3 -21 -14 -153 -25 -293
-23 -293 -29 -342 -38 -336 -4 2 -50 0 -102 -5 -333 -32 -756 -71 -815 -76
l-70 -5 -23 113 c-13 63 -46 223 -73 357 -28 134 -49 245 -47 247 3 3 908 31
1086 34 l112 1 -5 -37z m1383 -280 c139 -33 255 -63 258 -66 6 -5 -349 -711
-367 -731 -5 -5 -139 36 -321 99 -172 59 -457 156 -633 216 -175 61 -321 111
-323 113 -1 2 2 57 7 122 6 66 18 205 26 309 9 105 18 204 20 221 l5 30 538
-127 c295 -69 651 -153 790 -186z m-2628 274 c0 -2 14 -71 31 -153 129 -622
119 -564 95 -569 -11 -2 -129 -21 -261 -40 -462 -70 -751 -114 -830 -128 -44
-8 -80 -14 -81 -13 0 0 -78 133 -173 293 -95 161 -171 299 -168 305 3 8 152
45 373 92 203 44 504 110 669 147 274 61 345 75 345 66z m5921 -893 c371 -415
675 -759 677 -763 3 -8 -1346 -624 -1358 -619 -13 5 -961 1209 -958 1217 6 13
950 921 958 921 4 0 311 -340 681 -756z m-2306 176 c314 -171 576 -317 583
-324 11 -11 -54 -78 -350 -363 l-362 -351 -41 32 c-22 18 -229 162 -460 321
-231 159 -421 290 -423 291 -2 1 84 173 190 382 l193 379 50 -28 c28 -15 307
-168 620 -339z m-4865 65 c94 -159 172 -293 173 -297 2 -9 -465 -627 -474
-628 -3 0 -97 97 -208 216 l-201 216 63 91 c35 51 155 228 267 395 111 166
204 301 205 300 2 -2 80 -133 175 -293z m2433 -55 c-6 -91 -64 -790 -68 -826
-5 -36 -9 -41 -33 -42 -29 -1 -344 -33 -557 -57 -71 -8 -131 -12 -133 -10 -3
2 -15 55 -28 117 -12 62 -46 223 -74 358 -80 385 -83 401 -78 405 2 3 103 14
224 25 289 27 413 39 564 55 69 7 139 12 155 11 28 -1 30 -4 28 -36z m328 -81
c267 -92 547 -188 827 -282 83 -29 152 -55 152 -58 0 -4 -87 -177 -194 -385
-135 -265 -198 -378 -209 -376 -18 3 -920 292 -924 296 -6 6 72 896 78 896 4
0 125 -41 270 -91z m-1342 -31 c6 -29 47 -228 91 -442 44 -215 78 -391 77
-391 -1 -1 -153 -54 -337 -119 -184 -64 -357 -126 -384 -137 -27 -10 -53 -16
-56 -12 -4 5 -65 107 -137 228 -71 121 -197 332 -278 469 -81 137 -148 256
-149 264 -1 12 102 31 559 102 308 48 570 88 582 89 18 1 23 -7 32 -51z
m-1037 -478 c96 -162 225 -379 287 -483 61 -103 111 -192 111 -198 0 -17 -294
-449 -301 -441 -3 4 -171 184 -373 400 -202 216 -366 399 -364 406 3 12 461
617 464 613 1 -1 80 -135 176 -297z m5583 -396 c259 -328 471 -599 473 -603 5
-13 -1088 -505 -1097 -495 -5 5 -137 229 -295 499 l-287 489 48 48 c126 125
679 657 683 657 3 0 217 -268 475 -595z m-1716 224 c242 -167 442 -307 444
-313 2 -5 -137 -146 -309 -312 l-313 -303 -335 238 c-184 130 -335 240 -336
245 0 4 86 176 192 382 124 243 196 374 204 371 7 -3 211 -141 453 -308z
m-1903 -156 c8 -5 8 -47 -2 -157 -7 -82 -18 -208 -24 -280 -6 -71 -12 -130
-13 -131 -1 -1 -56 -7 -122 -13 -279 -25 -342 -32 -381 -37 l-40 -6 -12 54
c-28 129 -102 494 -102 501 0 4 19 7 43 8 31 0 600 61 637 68 3 0 10 -3 16 -7z
m495 -158 c233 -75 439 -141 457 -146 l33 -9 -107 -207 c-58 -114 -110 -211
-114 -216 -5 -5 -96 12 -207 37 -109 25 -274 62 -368 83 -93 21 -171 39 -173
40 -6 4 42 554 49 554 4 0 197 -61 430 -136z m-1195 -140 c67 -322 69 -333 58
-343 -5 -5 -125 -69 -267 -144 l-258 -135 -146 247 c-80 135 -154 261 -165
279 -26 42 -19 56 34 75 24 8 174 61 333 117 160 55 306 107 325 114 19 8 36
13 38 11 1 -1 23 -101 48 -221z m6433 12 l191 -214 0 -760 0 -760 -27 -6 c-16
-3 -190 -22 -388 -41 -198 -19 -445 -44 -550 -55 -104 -11 -224 -22 -265 -26
l-75 -6 -49 179 c-27 98 -84 302 -126 453 -43 151 -108 383 -145 515 -51 181
-75 249 -96 275 l-27 36 681 311 c375 171 683 311 684 312 1 1 87 -95 192
-213z m-3069 -413 c157 -267 286 -489 288 -492 2 -6 -834 -391 -849 -391 -4 0
-24 39 -44 88 -177 420 -285 682 -285 690 0 5 132 137 293 293 160 156 294
287 295 292 2 4 7 7 10 7 4 0 135 -219 292 -487z m-1315 136 c171 -121 317
-224 325 -229 17 -10 -63 -96 -262 -282 l-107 -100 -246 207 c-135 114 -245
209 -245 212 0 11 212 413 218 413 4 0 147 -100 317 -221z m-2706 -132 c84
-142 151 -260 149 -261 -1 -1 -65 -53 -140 -114 -76 -62 -142 -112 -147 -112
-10 0 -326 338 -326 348 0 4 64 103 143 221 129 191 145 211 156 195 7 -11 81
-135 165 -277z m1294 -188 c-12 -144 -24 -263 -26 -265 -3 -3 -306 -24 -352
-24 l-30 0 -49 243 c-27 133 -49 246 -50 252 -1 9 370 50 484 54 l46 1 -23
-261z m237 221 c74 -16 230 -51 345 -77 116 -25 212 -48 215 -51 3 -2 -42 -96
-100 -209 l-105 -205 -55 6 c-30 3 -156 15 -279 26 -123 10 -225 21 -228 23
-2 2 6 109 17 237 11 129 20 247 20 263 0 22 4 27 18 23 9 -3 78 -19 152 -36z
m-790 -37 c0 -5 22 -115 49 -246 l49 -237 -62 -34 c-224 -123 -310 -166 -316
-159 -6 7 -169 282 -225 380 -11 18 -17 34 -14 36 9 9 504 267 512 267 4 0 7
-3 7 -7z m4777 -57 c15 -20 36 -69 49 -113 12 -43 95 -337 184 -653 163 -574
180 -640 164 -640 -5 0 -121 -12 -259 -25 -697 -71 -848 -85 -851 -82 -2 2
-92 228 -200 503 -107 274 -202 509 -210 522 -15 23 -14 23 83 68 565 259 990
452 1000 453 7 0 24 -14 40 -33z m-3095 -279 l207 -175 -158 -151 c-87 -83
-162 -151 -166 -151 -6 0 -333 247 -363 275 -12 10 5 50 95 223 l108 210 35
-28 c19 -16 128 -107 242 -203z m829 -192 c87 -208 158 -380 156 -381 -6 -7
-429 -195 -432 -192 -1 2 -17 35 -35 73 -18 39 -82 169 -142 289 l-109 220
193 187 c106 103 197 187 201 186 5 -2 80 -173 168 -382z m-2952 26 c67 -112
121 -207 121 -211 0 -16 -207 -159 -214 -148 -1 2 -71 76 -155 165 -84 90
-151 167 -149 172 3 8 271 230 275 227 0 0 56 -93 122 -205z m966 -28 c-6 -30
-35 -385 -35 -418 0 -19 -11 -23 -115 -40 -63 -10 -116 -17 -118 -14 -6 8 -99
471 -95 474 5 5 222 22 305 24 l63 1 -5 -27z m292 7 c120 -10 237 -20 261 -22
23 -1 42 -4 42 -6 0 -2 -34 -70 -75 -152 l-76 -148 -210 -52 c-116 -28 -213
-50 -215 -47 -3 2 3 104 13 226 12 159 20 221 29 221 7 0 111 -9 231 -20z
m-659 -252 l48 -235 -80 -7 c-45 -3 -108 -6 -141 -6 l-61 0 -81 139 c-45 76
-83 143 -85 149 -2 10 342 205 349 198 1 -1 24 -108 51 -238z m3457 202 c9
-17 50 -117 91 -223 42 -105 127 -324 191 -485 63 -161 114 -294 112 -296 -2
-1 -101 -12 -219 -24 -614 -62 -823 -82 -828 -78 -4 5 -219 707 -225 734 -1 7
162 87 423 206 234 107 428 195 432 195 4 1 14 -13 23 -29z m-1425 -549 c0 -7
-391 -184 -395 -179 -1 2 -48 100 -105 218 l-102 215 163 157 164 157 137
-281 c76 -155 138 -284 138 -287z m-843 412 c98 -75 180 -138 182 -140 5 -3
-296 -296 -309 -301 -5 -2 -52 61 -105 139 l-98 142 74 149 c40 81 75 148 76
148 1 0 82 -62 180 -137z m-1549 -194 c74 -124 82 -142 70 -159 -40 -55 -94
-119 -99 -117 -4 1 -65 65 -137 142 l-129 139 70 43 c38 24 83 55 99 68 16 14
33 25 36 25 4 0 44 -64 90 -141z m1050 -184 c-50 -99 -92 -181 -93 -183 -3 -3
-238 28 -241 32 -1 0 3 53 10 116 l11 115 200 51 c110 28 201 50 202 50 1 -1
-39 -82 -89 -181z m806 -26 c55 -115 97 -211 95 -212 -28 -21 -353 -159 -356
-152 -2 6 -37 69 -78 140 l-74 130 152 152 c84 83 154 152 157 152 3 0 50 -94
104 -210z m-566 57 l91 -134 -95 -94 c-52 -51 -99 -94 -104 -96 -5 -2 -48 17
-94 43 l-85 46 92 185 c50 101 94 184 97 184 3 0 47 -60 98 -134z m1610 72 c6
-18 26 -85 45 -148 114 -372 168 -552 165 -555 -6 -4 -541 -55 -545 -52 -2 3
-15 76 -29 163 -39 252 -64 403 -69 416 -3 9 67 46 207 110 117 53 214 97 215
97 1 1 6 -14 11 -31z m-2223 -140 c-4 -57 -9 -105 -11 -107 -7 -7 -157 18
-164 28 -9 15 -33 141 -28 146 5 5 155 32 186 34 l24 1 -7 -102z m-243 -13 c8
-41 11 -78 7 -81 -12 -7 -150 -54 -160 -54 -7 0 -119 187 -119 200 0 4 58 8
129 9 l128 2 15 -76z m-248 -80 c53 -93 53 -94 -7 -137 l-30 -21 -72 78 -72
79 51 63 c59 72 50 77 130 -62z m2241 23 c6 -32 85 -533 85 -545 0 -5 -82 -17
-182 -27 -101 -9 -197 -19 -214 -22 l-31 -6 -25 209 c-14 114 -29 215 -32 223
-5 12 37 35 186 102 106 48 196 88 200 88 4 0 10 -10 13 -22z m-946 -176 c39
-71 71 -131 71 -134 0 -6 -191 -91 -194 -86 -1 2 -32 37 -69 79 -37 43 -67 81
-67 85 0 10 172 184 181 184 4 0 39 -58 78 -128z m-1009 51 c6 -32 13 -63 15
-70 2 -6 -15 -18 -38 -26 -23 -8 -49 -18 -58 -22 -12 -5 -24 8 -48 49 -17 31
-31 59 -31 64 0 6 118 57 142 61 4 1 12 -25 18 -56z m148 42 c45 -7 47 -10 36
-77 l-7 -38 -57 0 -57 0 -7 43 c-4 23 -10 53 -13 66 -5 22 -4 23 28 18 19 -3
53 -9 77 -12z m203 -26 c116 -14 112 -11 82 -66 -15 -26 -27 -49 -29 -51 -2
-4 -166 27 -172 32 -9 9 11 96 23 96 6 0 50 -5 96 -11z m230 -70 c41 -22 78
-44 82 -48 4 -4 -19 -32 -52 -61 l-61 -52 -50 42 c-27 23 -50 44 -50 46 0 4
53 114 56 114 1 0 34 -18 75 -41z m-753 -36 l34 -58 -28 -22 c-32 -25 -36 -23
-86 40 l-32 40 32 28 c18 16 36 29 40 29 4 0 22 -26 40 -57z m1687 15 c7 -32
45 -351 45 -381 0 -24 -3 -24 -97 -31 -54 -4 -112 -9 -130 -12 l-31 -6 -75
147 -75 147 77 36 c182 84 266 122 273 122 4 0 10 -10 13 -22z m4755 -744 c0
-415 -3 -754 -7 -754 -4 0 -77 11 -163 25 -85 14 -301 47 -480 75 -179 28
-400 62 -492 77 l-168 26 0 594 0 593 28 1 c15 0 306 28 647 63 341 34 623 61
628 59 4 -2 7 -344 7 -759z m-6094 674 c-3 -13 -6 -31 -6 -40 0 -14 -9 -18
-39 -18 -32 0 -40 4 -45 23 -14 51 -9 57 45 57 48 0 51 -1 45 -22z m133 10
c36 -6 67 -13 69 -14 2 -1 -4 -16 -13 -33 -17 -33 -24 -35 -99 -25 l-47 7 3
38 c2 44 -2 43 87 27z m-274 -34 c3 -20 5 -37 3 -39 -2 -2 -20 -6 -40 -10 -33
-6 -38 -4 -52 23 l-16 30 43 15 c23 9 45 16 48 16 4 1 10 -15 14 -35z m744
-49 c35 -42 62 -77 60 -79 -2 -2 -39 -20 -81 -39 l-78 -36 -45 53 c-25 29 -45
58 -45 64 0 10 109 112 120 112 3 0 34 -34 69 -75z m-285 -14 c20 -22 20 -22
-12 -54 -31 -31 -32 -31 -46 -12 -8 11 -21 29 -29 40 -13 17 -13 23 1 52 l15
32 26 -18 c14 -11 35 -29 45 -40z m-574 -12 c0 -4 -7 -12 -15 -19 -13 -11 -20
-9 -41 11 l-25 24 22 18 c22 18 23 18 41 -5 10 -13 18 -26 18 -29z m4990 -535
l0 -586 -27 6 c-29 6 -93 16 -553 87 -146 22 -269 44 -273 48 -4 4 -37 118
-73 252 -36 134 -92 339 -123 454 -32 116 -57 211 -55 213 2 4 1029 109 1077
111 l27 1 0 -586z m-3731 409 c39 -75 70 -137 69 -138 -5 -4 -252 -24 -255
-21 -8 8 -75 207 -71 211 6 6 171 84 180 84 3 1 38 -60 77 -136z m-1017 79
c-3 -29 -9 -42 -23 -45 -15 -4 -20 3 -27 37 -7 39 -6 41 18 47 35 8 36 6 32
-39z m146 29 c11 -7 10 -17 -8 -52 -13 -24 -23 -45 -25 -47 -1 -1 -16 3 -33 9
-29 10 -32 15 -32 55 l0 44 43 0 c23 0 48 -4 55 -9z m-248 -25 c0 -13 3 -31 6
-40 12 -31 -31 -16 -53 19 -13 19 -23 37 -23 40 0 3 16 5 35 5 30 0 35 -3 35
-24z m-91 -41 c26 -45 12 -53 -25 -14 -24 25 -26 31 -14 39 8 5 16 10 17 10 0
0 10 -16 22 -35z m427 4 c15 -31 15 -32 -17 -65 -38 -39 -45 -41 -54 -15 -6
19 32 111 47 111 4 0 15 -14 24 -31z m182 -1 c58 -68 58 -66 10 -88 l-43 -20
-33 37 -32 37 32 33 c17 18 34 33 36 33 2 0 15 -14 30 -32z m3205 -88 c36
-134 207 -771 214 -793 4 -15 1 -18 -14 -13 -10 3 -135 23 -278 45 -1051 162
-965 146 -965 180 -1 14 -11 150 -24 301 -13 151 -23 276 -22 278 6 6 1052
108 1058 103 3 -3 17 -49 31 -101z m-2875 -26 c18 -53 31 -98 30 -99 -8 -7
-118 -11 -118 -4 0 4 -22 34 -50 65 -27 31 -50 60 -50 64 0 8 128 69 145 69 6
1 25 -42 43 -95z m-824 40 c10 -25 -1 -29 -14 -5 -6 12 -7 21 -1 21 5 0 12 -7
15 -16z m65 -21 c-1 -34 -2 -35 -9 -13 -11 36 -11 50 0 50 6 0 10 -17 9 -37z
m98 13 c1 -1 -10 -25 -24 -54 -14 -29 -27 -51 -27 -50 -1 2 0 29 2 61 4 54 5
57 25 51 12 -4 23 -7 24 -8z m243 -42 c0 -7 -12 -17 -27 -22 -16 -5 -35 -13
-43 -16 -8 -3 -23 1 -33 8 -17 14 -16 16 20 49 l38 36 23 -21 c12 -12 22 -27
22 -34z m2179 -267 c13 -159 21 -291 18 -293 -3 -3 -143 16 -312 43 l-308 47
7 121 c3 66 9 166 12 222 l7 102 51 6 c257 29 492 51 497 46 3 -3 16 -136 28
-294z m-1950 226 c33 -38 46 -60 38 -64 -7 -3 -42 -9 -79 -12 l-67 -6 -21 46
c-11 25 -18 48 -15 51 6 6 77 40 87 41 3 1 29 -25 57 -56z m-419 40 c-1 -10
-26 -43 -33 -43 -3 0 0 11 6 25 11 23 27 34 27 18z m1736 -170 c-3 -76 -9
-173 -12 -215 -6 -73 -7 -78 -28 -73 -25 5 -258 42 -335 53 l-53 7 1 140 c2
116 7 180 15 186 5 3 330 37 370 38 l48 1 -6 -137z m-1483 45 c-2 -5 -25 -8
-51 -8 -37 0 -50 5 -60 21 -16 25 -17 23 38 47 l45 19 16 -36 c9 -20 14 -39
12 -43z m-203 64 c0 -5 -17 -16 -37 -26 l-38 -18 24 26 c24 25 51 35 51 18z
m1213 -164 c-3 -84 -7 -155 -9 -157 -5 -5 -261 31 -274 39 -9 6 13 226 24 237
2 2 50 9 107 14 57 6 109 12 114 14 43 16 44 13 38 -147z m-325 11 c-6 -57
-14 -108 -18 -112 -7 -8 -209 18 -218 28 -2 2 -5 40 -5 84 l-2 80 50 6 c86 10
200 21 203 20 1 -1 -3 -49 -10 -106z m-843 90 c9 -14 7 -16 -50 -23 l-50 -6
35 19 c40 23 56 25 65 10z m555 -95 l0 -76 -42 7 c-82 13 -88 19 -88 97 0 31
4 39 23 43 31 7 91 11 100 7 4 -2 7 -37 7 -78z m-176 44 c3 -13 6 -38 6 -55 0
-38 -1 -38 -100 -22 l-69 12 6 31 c3 17 8 33 10 36 4 4 70 14 124 19 10 0 19
-9 23 -21z m-204 -29 c0 -30 -2 -31 -32 -25 -61 12 -77 42 -25 49 17 2 38 5
45 5 7 1 12 -10 12 -29z m-135 1 c7 -11 -16 -11 -60 0 -28 7 -28 8 12 9 23 0
45 -3 48 -9z m-91 -45 c44 -7 46 -8 26 -22 -23 -16 -44 -12 -80 18 -14 12 -18
19 -9 16 9 -3 37 -9 63 -12z m186 -33 c0 -5 -15 -26 -33 -47 l-33 -38 -38 26
-38 25 38 21 c39 20 104 28 104 13z m-230 -44 c0 -12 -6 -9 -26 13 -19 22 -19
22 4 8 12 -8 22 -17 22 -21z m432 14 c4 -4 -21 -38 -56 -76 l-63 -70 -46 27
c-25 15 -48 31 -51 36 -3 5 13 30 36 56 l41 47 66 -7 c36 -4 69 -10 73 -13z
m190 -28 c15 -5 12 -19 -28 -131 -24 -70 -46 -128 -48 -130 -6 -6 -186 111
-183 119 1 3 31 41 67 83 l65 76 55 -6 c30 -3 63 -8 72 -11z m-532 -36 c45
-26 47 -29 22 -51 -17 -16 -20 -15 -51 17 -18 19 -30 39 -27 45 9 15 11 14 56
-11z m717 6 c54 -8 99 -17 101 -19 2 -2 -20 -87 -49 -190 -43 -154 -55 -185
-68 -180 -22 9 -190 115 -196 125 -8 13 89 280 103 280 7 0 56 -7 109 -16z
m326 -50 c74 -11 116 -22 114 -28 -2 -6 -39 -117 -82 -246 -43 -129 -80 -238
-84 -242 -5 -5 -208 115 -228 136 -3 3 60 244 104 390 4 13 12 17 32 13 14 -3
79 -13 144 -23z m-908 -41 c25 -16 45 -31 45 -35 0 -8 -59 -58 -69 -58 -4 0
-22 15 -40 34 -33 34 -33 34 -15 60 11 14 22 26 26 26 4 0 28 -12 53 -27z
m1478 -52 c9 -9 -214 -681 -225 -681 -4 0 -86 50 -183 112 -136 86 -174 115
-169 127 3 9 42 122 85 251 43 129 81 240 83 246 5 12 394 -41 409 -55z m554
-82 c45 -6 86 -15 93 -19 10 -6 -38 -116 -317 -724 -37 -82 -73 -151 -79 -153
-13 -4 -427 259 -426 272 0 6 53 165 118 355 l116 346 207 -33 c113 -17 243
-37 288 -44z m-1844 14 c50 -32 95 -61 100 -64 10 -7 -92 -141 -104 -137 -11
5 -169 177 -169 185 0 8 70 72 79 73 2 0 44 -26 94 -57z m2217 -72 c521 -82
856 -134 957 -150 62 -9 115 -19 117 -22 3 -3 -137 -308 -310 -679 -174 -371
-318 -681 -321 -688 -6 -14 17 -28 -353 206 -774 491 -732 463 -716 481 8 9
48 90 89 181 70 154 286 627 310 678 5 12 17 22 26 22 9 0 99 -13 201 -29z
m-1892 -135 l43 -27 -77 -99 c-42 -55 -80 -100 -83 -99 -11 1 -166 177 -166
188 0 6 24 42 54 80 l54 69 66 -42 c36 -24 85 -55 109 -70z m3176 -66 c66 -11
238 -38 381 -60 300 -46 317 -49 311 -58 -4 -8 -49 -197 -326 -1367 -103 -436
-127 -535 -133 -542 -5 -4 -950 588 -1020 639 -17 13 3 59 278 648 163 349
310 663 325 698 19 40 35 62 46 62 9 0 71 -9 138 -20z m-2982 -56 c57 -37 105
-68 107 -70 3 -3 -111 -147 -178 -224 l-31 -35 -85 90 c-47 50 -83 95 -81 102
7 18 150 202 158 202 4 1 54 -29 110 -65z m3843 -78 c50 -8 236 -37 415 -65
179 -28 426 -67 549 -86 124 -19 226 -37 228 -38 2 -2 2 -648 1 -1435 l-3
-1431 -893 566 c-491 311 -889 569 -884 572 9 6 29 86 132 526 21 88 79 336
130 550 178 754 200 846 200 850 0 8 29 6 125 -9z m-3343 -240 c14 -10 -1 -34
-124 -195 -136 -177 -141 -182 -159 -164 -10 10 -78 83 -152 163 l-134 145
111 136 110 136 166 -105 c91 -57 172 -110 182 -116z m311 -196 c92 -58 167
-108 167 -111 0 -3 -90 -105 -199 -226 l-199 -221 -157 169 -156 169 97 128
c54 70 120 155 146 189 l49 62 43 -27 c24 -15 118 -74 209 -132z m747 -474
c283 -180 515 -331 515 -336 0 -11 -730 -550 -744 -550 -13 0 -713 759 -709
769 9 24 403 451 412 448 7 -3 243 -152 526 -331z m1076 -682 c275 -174 507
-322 517 -329 15 -11 -30 -55 -405 -396 -233 -211 -444 -403 -469 -426 l-46
-43 -430 468 c-237 257 -433 470 -435 474 -3 7 750 566 763 567 4 1 231 -141
505 -315z m1289 -817 c209 -133 544 -345 745 -473 l365 -231 3 -1352 c1 -743
-1 -1351 -4 -1351 -3 0 -34 30 -68 67 -35 38 -656 711 -1380 1497 l-1318 1429
39 38 c21 21 233 215 472 432 l434 394 166 -104 c91 -58 337 -214 546 -346z
m-4467 -2279 l-21 -77 -61 31 c-34 17 -62 32 -64 33 -2 1 34 23 80 48 46 24
84 44 85 43 1 -1 -7 -36 -19 -78z m261 -200 c-16 -50 -30 -93 -32 -94 -2 -2
-24 21 -50 50 l-47 54 73 40 c39 22 75 41 78 41 4 1 -6 -40 -22 -91z m154
-294 l-77 -96 -12 60 c-7 33 -18 70 -24 82 -6 12 -10 23 -8 25 3 4 129 20 181
24 12 1 -6 -28 -60 -95z m-2194 -138 l34 -35 -12 -63 c-7 -35 -25 -86 -39
-113 -23 -43 -31 -50 -57 -50 -24 0 -34 7 -52 40 -27 48 -28 53 -6 57 12 2 20
22 29 76 13 75 35 122 57 122 7 0 28 -15 46 -34z m121 -331 c20 -22 22 -30 16
-82 -9 -80 -32 -146 -61 -173 -28 -26 -39 -21 -65 30 -24 48 -24 47 0 53 16 4
20 14 20 49 0 47 16 116 32 136 16 18 32 15 58 -13z m2273 -129 c9 -22 -9 -85
-37 -126 -30 -45 -33 -65 -11 -78 12 -6 4 -14 -35 -32 -70 -33 -85 -23 -85 56
1 60 40 168 68 186 21 13 94 9 100 -6z m-2039 -126 c44 -16 106 -170 91 -227
-9 -38 -35 -44 -88 -21 -43 19 -62 38 -37 38 13 0 13 47 0 55 -31 19 -63 125
-46 153 9 14 45 16 80 2z m311 -301 c51 -61 92 -162 80 -199 -9 -28 -34 -32
-86 -15 -43 15 -47 18 -37 34 9 15 5 26 -24 62 -45 56 -58 81 -58 113 0 28 11
34 62 35 29 1 42 -5 63 -30z"/>
</g>
</svg>
