<?xml version="1.0" ?>
<svg xmlns="http://www.w3.org/2000/svg" version="1.1" viewBox="0 0 510 377">
  <path d="M 323 339 L 317 340 L 307 347 L 302 356 L 299 367 L 296 372 L 294 373 L 294 376 L 304 375 L 308 370 L 313 354 L 324 343 Z M 186 339 L 185 343 L 196 354 L 200 368 L 203 373 L 208 376 L 215 376 L 215 374 L 210 367 L 207 356 L 202 347 L 192 340 Z M 253 335 L 249 338 L 248 346 L 251 351 L 256 352 L 260 349 L 261 341 L 258 336 Z M 238 311 L 238 314 L 242 318 L 249 321 L 260 321 L 267 318 L 271 314 L 271 311 L 263 310 L 257 306 L 252 306 L 246 310 Z M 238 280 L 238 283 L 240 285 L 250 290 L 260 290 L 271 284 L 271 280 L 263 279 L 256 274 L 253 274 L 246 279 Z M 299 261 L 297 261 L 297 269 L 288 280 L 288 284 L 293 291 L 293 295 L 290 300 L 285 305 L 284 308 L 285 319 L 290 322 L 290 327 L 282 337 L 280 342 L 280 348 L 282 351 L 282 357 L 283 358 L 283 366 L 282 367 L 281 377 L 283 377 L 286 374 L 289 368 L 291 361 L 292 348 L 295 342 L 297 334 L 297 327 L 295 322 L 293 321 L 293 317 L 297 310 L 300 300 L 299 292 L 297 290 L 297 286 L 302 282 L 306 274 L 304 266 Z M 210 261 L 205 266 L 203 274 L 207 282 L 212 286 L 212 290 L 210 292 L 209 300 L 212 310 L 216 317 L 216 321 L 214 322 L 212 327 L 212 334 L 214 342 L 217 348 L 218 361 L 220 368 L 223 374 L 226 377 L 228 377 L 227 367 L 226 366 L 226 358 L 227 357 L 227 351 L 229 348 L 229 342 L 227 337 L 219 327 L 219 322 L 224 319 L 225 308 L 224 305 L 219 300 L 216 295 L 216 291 L 221 284 L 221 280 L 212 269 L 212 261 Z M 377 244 L 375 244 L 367 252 L 354 262 L 343 274 L 338 274 L 333 265 L 324 257 L 321 257 L 321 260 L 326 267 L 331 285 L 331 297 L 327 313 L 323 323 L 323 328 L 325 328 L 328 322 L 365 272 L 377 248 Z M 132 244 L 132 248 L 144 272 L 161 296 L 163 297 L 172 311 L 176 315 L 184 328 L 186 328 L 186 323 L 182 313 L 178 297 L 178 285 L 183 267 L 188 260 L 188 257 L 185 257 L 176 265 L 171 274 L 166 274 L 155 262 L 142 252 L 134 244 Z M 234 245 L 234 247 L 241 247 L 248 245 L 261 245 L 268 247 L 275 247 L 275 245 L 268 242 L 262 237 L 256 226 L 252 227 L 250 233 L 245 239 Z M 417 189 L 417 191 L 432 192 L 445 195 L 450 198 L 454 198 L 454 195 L 448 189 L 439 185 L 428 184 L 421 186 Z M 92 189 L 88 186 L 81 184 L 70 185 L 61 189 L 55 195 L 55 198 L 59 198 L 61 196 L 77 192 L 92 191 Z M 236 168 L 237 171 L 240 172 L 249 180 L 253 188 L 256 188 L 260 180 L 265 175 L 273 170 L 272 167 L 263 168 L 258 170 L 251 170 L 241 167 L 237 167 Z M 464 201 L 456 202 L 455 204 L 440 209 L 432 210 L 427 212 L 413 213 L 412 214 L 393 214 L 392 213 L 380 212 L 370 209 L 364 205 L 364 201 L 367 199 L 376 199 L 397 193 L 406 188 L 421 175 L 427 167 L 430 161 L 430 158 L 427 158 L 418 167 L 408 174 L 394 181 L 379 185 L 375 185 L 373 179 L 364 176 L 362 174 L 362 170 L 365 166 L 365 162 L 363 162 L 348 178 L 342 188 L 331 211 L 324 221 L 311 234 L 304 239 L 288 246 L 288 248 L 301 248 L 309 246 L 322 240 L 326 237 L 337 226 L 341 220 L 350 199 L 354 199 L 357 201 L 357 207 L 359 211 L 368 221 L 378 227 L 384 227 L 385 228 L 411 228 L 412 227 L 418 227 L 433 223 L 442 219 L 464 204 Z M 45 201 L 45 204 L 67 219 L 76 223 L 91 227 L 97 227 L 98 228 L 124 228 L 125 227 L 131 227 L 141 221 L 150 211 L 152 207 L 152 201 L 155 199 L 159 199 L 168 220 L 172 226 L 183 237 L 200 246 L 208 248 L 221 248 L 221 246 L 217 245 L 202 237 L 185 221 L 178 211 L 175 203 L 173 201 L 161 178 L 146 162 L 144 162 L 144 166 L 147 170 L 147 174 L 145 176 L 136 179 L 134 185 L 130 185 L 115 181 L 101 174 L 91 167 L 82 158 L 79 158 L 79 161 L 84 170 L 93 180 L 103 188 L 112 193 L 133 199 L 142 199 L 145 201 L 145 205 L 139 209 L 129 212 L 117 213 L 116 214 L 97 214 L 96 213 L 89 213 L 88 212 L 82 212 L 77 210 L 73 210 L 54 204 L 53 202 Z M 237 152 L 237 154 L 240 157 L 247 160 L 262 160 L 269 157 L 272 154 L 272 152 L 268 152 L 264 154 L 245 154 L 241 152 Z M 483 128 L 480 128 L 479 146 L 475 158 L 479 158 L 483 153 L 487 153 L 488 154 L 488 163 L 485 171 L 475 181 L 470 192 L 470 197 L 474 196 L 490 179 L 495 170 L 495 161 L 491 149 L 488 148 L 488 139 Z M 26 128 L 21 139 L 21 148 L 18 149 L 16 154 L 16 157 L 14 161 L 14 170 L 17 176 L 24 185 L 35 196 L 39 197 L 39 192 L 34 181 L 24 171 L 21 163 L 21 154 L 22 153 L 26 153 L 30 158 L 34 158 L 30 146 L 29 128 Z M 280 167 L 293 166 L 294 165 L 304 165 L 312 162 L 317 162 L 331 158 L 344 151 L 362 150 L 363 151 L 373 152 L 374 154 L 376 154 L 386 149 L 402 145 L 424 145 L 425 146 L 430 146 L 434 151 L 442 156 L 451 157 L 451 154 L 437 132 L 431 114 L 429 114 L 428 118 L 428 134 L 429 135 L 429 139 L 428 140 L 424 140 L 411 136 L 397 136 L 382 142 L 376 148 L 370 148 L 358 144 L 340 144 L 327 149 L 322 154 L 313 159 L 307 159 L 295 150 L 288 147 L 288 137 L 290 133 L 290 123 L 295 121 L 297 115 L 297 111 L 295 111 L 292 115 L 286 115 L 286 128 L 285 129 L 285 134 L 282 139 L 282 153 L 284 157 L 284 162 L 280 165 Z M 229 167 L 229 165 L 225 162 L 225 157 L 227 153 L 227 139 L 224 134 L 223 115 L 217 115 L 214 111 L 212 111 L 213 119 L 214 121 L 219 123 L 219 133 L 221 137 L 221 147 L 214 150 L 202 159 L 196 159 L 187 154 L 182 149 L 169 144 L 151 144 L 139 148 L 133 148 L 127 142 L 112 136 L 98 136 L 85 140 L 81 140 L 80 139 L 80 135 L 81 134 L 81 118 L 80 114 L 78 114 L 73 130 L 58 154 L 58 157 L 67 156 L 75 151 L 79 146 L 84 146 L 85 145 L 107 145 L 123 149 L 133 154 L 135 154 L 136 152 L 146 151 L 147 150 L 165 151 L 178 158 L 192 162 L 197 162 L 205 165 L 215 165 L 216 166 Z M 448 82 L 448 87 L 452 98 L 473 118 L 477 119 L 477 115 L 468 102 L 458 92 L 454 86 L 450 82 Z M 61 82 L 59 82 L 41 102 L 32 115 L 32 119 L 36 118 L 57 98 L 61 88 Z M 289 61 L 290 83 L 289 84 L 288 98 L 295 98 L 296 102 L 298 102 L 300 96 L 300 92 L 298 89 L 294 88 L 294 68 L 291 61 Z M 220 61 L 218 61 L 215 68 L 215 88 L 211 89 L 209 92 L 209 96 L 211 102 L 213 102 L 214 98 L 221 98 L 220 84 L 219 83 Z M 373 58 L 373 84 L 375 85 L 382 85 L 383 86 L 391 86 L 392 85 L 398 85 L 401 83 L 406 83 L 408 82 L 410 78 L 410 74 L 414 71 L 418 71 L 423 84 L 426 96 L 429 95 L 429 76 L 428 75 L 427 66 L 423 58 L 420 58 L 416 67 L 412 67 L 408 63 L 404 63 L 404 65 L 407 68 L 407 74 L 404 78 L 386 79 L 383 78 L 380 75 L 379 63 L 382 60 L 395 54 L 412 51 L 414 50 L 414 48 L 392 49 L 377 53 Z M 80 95 L 81 96 L 84 95 L 86 84 L 91 71 L 97 72 L 99 74 L 99 78 L 101 82 L 103 83 L 108 83 L 111 85 L 117 85 L 118 86 L 126 86 L 127 85 L 134 85 L 136 84 L 136 58 L 132 53 L 122 50 L 111 49 L 110 48 L 95 48 L 95 50 L 97 51 L 114 54 L 127 60 L 130 63 L 129 75 L 126 78 L 123 79 L 105 78 L 102 74 L 102 68 L 105 65 L 105 63 L 101 63 L 97 67 L 93 67 L 89 58 L 86 58 L 82 66 L 82 70 L 80 76 Z M 229 50 L 229 52 L 234 52 L 243 49 L 266 49 L 275 52 L 280 52 L 280 50 L 273 45 L 262 42 L 242 43 L 236 45 Z" stroke="none" fill-rule="nonzero"/>
</svg>
